<?xml version="1.0" encoding="UTF-8"?>
<svg id="Layer_2" data-name="Layer 2" xmlns="http://www.w3.org/2000/svg" viewBox="0 0 125.36 125.36">
  <defs>
    <style>
      .cls-1 {
        fill: #a0f22c;
      }

      .cls-2 {
        fill: none;
        stroke: #000;
        stroke-miterlimit: 10;
        stroke-width: 1.06px;
      }

      .cls-3 {
        font-family: MyriadPro-Regular, 'Myriad Pro';
        font-size: 12.37px;
      }
    </style>
  </defs>
  <g id="Layer_1-2" data-name="Layer 1">
    <g>
      <g>
        <circle class="cls-1" cx="62.68" cy="62.68" r="62.68"/>
        <g>
          <path d="m82.61,62.68c-10.55,5.18-14.75,9.38-19.93,19.93-5.18-10.55-9.38-14.75-19.93-19.93,10.55-5.18,14.75-9.38,19.93-19.93,5.18,10.55,9.38,14.75,19.93,19.93Z"/>
          <path d="m65.16,115.45c-1.31.64-1.83,1.17-2.48,2.48-.64-1.31-1.17-1.83-2.48-2.48,1.31-.64,1.83-1.17,2.48-2.48.64,1.31,1.17,1.83,2.48,2.48Z"/>
          <path d="m65.16,9.91c-1.31.64-1.83,1.17-2.48,2.48-.64-1.31-1.17-1.83-2.48-2.48,1.31-.64,1.83-1.17,2.48-2.48.64,1.31,1.17,1.83,2.48,2.48Z"/>
          <text class="cls-3" transform="translate(87.97 20.03) rotate(32.4)"><tspan x="0" y="0">l</tspan></text>
          <text class="cls-3" transform="translate(90.32 21.42) rotate(37.43)"><tspan x="0" y="0">e</tspan></text>
          <text class="cls-3" transform="translate(95.05 25.1) rotate(43.12)"><tspan x="0" y="0">t</tspan></text>
          <text class="cls-3" transform="translate(97.94 27.83) rotate(46.83)"><tspan x="0" y="0"> </tspan></text>
          <text class="cls-3" transform="translate(99.67 29.63) rotate(50.55)"><tspan x="0" y="0">t</tspan></text>
          <text class="cls-3" transform="translate(102.17 32.54) rotate(56.52)"><tspan x="0" y="0">o</tspan></text>
          <text class="cls-3" transform="translate(105.74 38.1) rotate(61.75)"><tspan x="0" y="0"> </tspan></text>
          <text class="cls-3" transform="translate(106.97 40.23) rotate(66.44)"><tspan x="0" y="0">k</tspan></text>
          <text class="cls-3" transform="translate(109.3 45.49) rotate(73.74)"><tspan x="0" y="0">n</tspan></text>
          <text class="cls-3" transform="translate(111.17 51.85) rotate(81.4)"><tspan x="0" y="0">o</tspan></text>
          <text class="cls-3" transform="translate(112.31 58.15) rotate(90.93)"><tspan x="0" y="0">w</tspan></text>
          <text class="cls-3" transform="translate(112.07 67.07) rotate(96.52)"><tspan x="0" y="0"> </tspan></text>
          <text class="cls-3" transform="translate(111.86 69.52) rotate(101.3)"><tspan x="0" y="0">a</tspan></text>
          <text class="cls-3" transform="translate(110.79 75.13) rotate(108.56)"><tspan x="0" y="0">b</tspan></text>
          <text class="cls-3" transform="translate(108.64 81.56) rotate(116.3)"><tspan x="0" y="0">o</tspan></text>
          <text class="cls-3" transform="translate(105.76 87.43) rotate(123.87)"><tspan x="0" y="0">u</tspan></text>
          <text class="cls-3" transform="translate(102.02 92.89) rotate(129.92)"><tspan x="0" y="0">t</tspan></text>
          <text class="cls-3" transform="translate(99.46 95.92) rotate(133.63)"><tspan x="0" y="0"> </tspan></text>
          <text class="cls-3" transform="translate(97.85 97.76) rotate(138.85)"><tspan x="0" y="0">u</tspan></text>
          <text class="cls-3" transform="translate(92.86 102.06) rotate(145.31)"><tspan x="0" y="0">s</tspan></text>
          <text class="cls-3" transform="translate(88.93 104.74) rotate(149.5)"><tspan x="0" y="0"> </tspan></text>
          <text class="cls-3" transform="translate(86.77 106.02) rotate(152.4)"><tspan x="0" y="0"> </tspan></text>
          <text class="cls-3" transform="translate(84.54 107.19) rotate(155.32)"><tspan x="0" y="0"> </tspan></text>
          <text class="cls-3" transform="translate(82.25 108.24) rotate(158.26)"><tspan x="0" y="0"> </tspan></text>
          <text class="cls-3" transform="translate(79.89 109.19) rotate(161.22)"><tspan x="0" y="0"> </tspan></text>
          <text class="cls-3" transform="translate(77.51 110) rotate(164.14)"><tspan x="0" y="0"> </tspan></text>
          <text class="cls-3" transform="translate(75.07 110.69) rotate(167.09)"><tspan x="0" y="0"> </tspan></text>
          <text class="cls-3" transform="translate(72.63 111.26) rotate(170.01)"><tspan x="0" y="0"> </tspan></text>
          <text class="cls-3" transform="translate(70.14 111.7) rotate(172.94)"><tspan x="0" y="0"> </tspan></text>
          <text class="cls-3" transform="translate(67.64 112.01) rotate(175.83)"><tspan x="0" y="0"> </tspan></text>
          <text class="cls-3" transform="translate(65.13 112.2) rotate(178.71)"><tspan x="0" y="0"> </tspan></text>
          <text class="cls-3" transform="translate(62.61 112.25) rotate(-178.44)"><tspan x="0" y="0"> </tspan></text>
          <text class="cls-3" transform="translate(60.1 112.19) rotate(-175.56)"><tspan x="0" y="0"> </tspan></text>
          <text class="cls-3" transform="translate(57.57 111.99) rotate(-172.64)"><tspan x="0" y="0"> </tspan></text>
          <text class="cls-3" transform="translate(55.08 111.68) rotate(-169.74)"><tspan x="0" y="0"> </tspan></text>
          <text class="cls-3" transform="translate(52.58 111.22) rotate(-166.78)"><tspan x="0" y="0"> </tspan></text>
          <text class="cls-3" transform="translate(50.13 110.65) rotate(-163.86)"><tspan x="0" y="0"> </tspan></text>
          <text class="cls-3" transform="translate(47.7 109.95) rotate(-160.91)"><tspan x="0" y="0"> </tspan></text>
          <text class="cls-3" transform="translate(45.34 109.14) rotate(-158)"><tspan x="0" y="0"> </tspan></text>
          <text class="cls-3" transform="translate(43 108.19) rotate(-155.06)"><tspan x="0" y="0"> </tspan></text>
          <text class="cls-3" transform="translate(40.71 107.13) rotate(-152.14)"><tspan x="0" y="0"> </tspan></text>
          <text class="cls-3" transform="translate(38.49 105.97) rotate(-149.06)"><tspan x="0" y="0">l</tspan></text>
          <text class="cls-3" transform="translate(36.08 104.61) rotate(-143.98)"><tspan x="0" y="0">e</tspan></text>
          <text class="cls-3" transform="translate(31.25 101.05) rotate(-138.29)"><tspan x="0" y="0">t</tspan></text>
          <text class="cls-3" transform="translate(28.3 98.39) rotate(-134.57)"><tspan x="0" y="0"> </tspan></text>
          <text class="cls-3" transform="translate(26.52 96.63) rotate(-130.86)"><tspan x="0" y="0">t</tspan></text>
          <text class="cls-3" transform="translate(23.98 93.82) rotate(-124.95)"><tspan x="0" y="0">o</tspan></text>
          <text class="cls-3" transform="translate(20.25 88.34) rotate(-119.71)"><tspan x="0" y="0"> </tspan></text>
          <text class="cls-3" transform="translate(18.97 86.23) rotate(-115.01)"><tspan x="0" y="0">k</tspan></text>
          <text class="cls-3" transform="translate(16.5 81.01) rotate(-107.68)"><tspan x="0" y="0">n</tspan></text>
          <text class="cls-3" transform="translate(14.48 74.72) rotate(-100.04)"><tspan x="0" y="0">o</tspan></text>
          <text class="cls-3" transform="translate(13.25 68.43) rotate(-91.36)"><tspan x="0" y="0">w</tspan></text>
          <text class="cls-3" transform="translate(13.2 59.55) rotate(-84.92)"><tspan x="0" y="0"> </tspan></text>
          <text class="cls-3" transform="translate(13.35 57.07) rotate(-80.14)"><tspan x="0" y="0">a</tspan></text>
          <text class="cls-3" transform="translate(14.27 51.45) rotate(-72.9)"><tspan x="0" y="0">b</tspan></text>
          <text class="cls-3" transform="translate(16.26 44.96) rotate(-65.15)"><tspan x="0" y="0">o</tspan></text>
          <text class="cls-3" transform="translate(18.99 39.02) rotate(-57.57)"><tspan x="0" y="0">u</tspan></text>
          <text class="cls-3" transform="translate(22.58 33.48) rotate(-51.54)"><tspan x="0" y="0">t</tspan></text>
          <text class="cls-3" transform="translate(25.07 30.39) rotate(-47.82)"><tspan x="0" y="0"> </tspan></text>
          <text class="cls-3" transform="translate(26.63 28.5) rotate(-42.61)"><tspan x="0" y="0">u</tspan></text>
          <text class="cls-3" transform="translate(31.53 24.06) rotate(-36.11)"><tspan x="0" y="0">s</tspan></text>
          <text class="cls-3" transform="translate(35.39 21.29) rotate(-31.93)"><tspan x="0" y="0"> </tspan></text>
        </g>
      </g>
      <circle class="cls-2" cx="62.68" cy="62.68" r="42.79"/>
    </g>
  </g>
</svg>